<svg xmlns="http://www.w3.org/2000/svg" viewBox="0 0 20 26" width="20" height="26">
	<style>
		tspan { white-space:pre }
		.shp0 { fill: #ffffff } 
	</style>
	<g id="latest works">
		<g id="images">
			<path id="link" class="shp0" d="M19.36 6.81L15.86 12.87C15.31 13.83 14.09 14.15 13.13 13.6L12.26 13.1L13.26 11.37L13.26 11.37C13.74 11.65 14.35 11.48 14.63 11L17.13 6.67C17.41 6.2 17.24 5.58 16.76 5.31L13.3 3.31C12.82 3.03 12.21 3.2 11.93 3.67L9.43 8C9.16 8.48 9.32 9.09 9.8 9.37L8.8 11.1L7.93 10.6C6.98 10.05 6.65 8.83 7.2 7.87L10.7 1.81C11.25 0.85 12.48 0.52 13.43 1.08L18.63 4.08C19.59 4.63 19.91 5.85 19.36 6.81ZM7.53 17.3C7.05 17.02 6.89 16.41 7.17 15.93L11.16 9C11.44 8.53 12.05 8.36 12.53 8.64C13.01 8.91 13.17 9.53 12.9 10L8.9 16.93C8.62 17.41 8.01 17.57 7.53 17.3ZM6.8 14.57L6.8 14.57C6.32 14.29 5.71 14.45 5.43 14.93L2.93 19.26C2.66 19.74 2.82 20.35 3.3 20.63L6.76 22.63C7.24 22.9 7.85 22.74 8.13 22.26L10.63 17.93C10.91 17.45 10.74 16.84 10.26 16.57L10.26 16.57L11.26 14.83L12.13 15.33C13.09 15.89 13.41 17.11 12.86 18.07L9.36 24.13C8.81 25.09 7.59 25.41 6.63 24.86L1.43 21.86C0.48 21.31 0.15 20.09 0.7 19.13L4.2 13.07C4.75 12.11 5.98 11.78 6.93 12.33L7.8 12.83L6.8 14.57Z" />
		</g>
	</g>
</svg>