<svg xmlns="http://www.w3.org/2000/svg" viewBox="0 0 35 25" width="35" height="25">
	<style>
		tspan { white-space:pre }
		.shp0 { fill: #ffffff } 
	</style>
	<g id="latest works">
		<g id="images">
			<path id="preview" fill-rule="evenodd" class="shp0" d="M17.32 0.82C27.32 0.82 34.8 12.48 34.8 12.48C34.8 12.48 27.26 24.14 17.32 24.14C6.7 24.14 0.16 12.48 0.16 12.48C0.16 12.48 6.76 0.82 17.32 0.82ZM12.18 12.5C12.18 15.39 14.52 17.73 17.42 17.73C20.31 17.73 22.66 15.39 22.66 12.5C22.66 9.6 20.31 7.26 17.42 7.26C14.52 7.26 12.18 9.6 12.18 12.5ZM17.45 9.88C18.89 9.88 20.06 11.04 20.06 12.48C20.06 13.92 18.89 15.09 17.45 15.09C16.01 15.09 14.84 13.92 14.84 12.48C14.84 11.04 16.01 9.88 17.45 9.88Z" />
		</g>
	</g>
</svg>